<?xml version="1.0" encoding="utf-8"?>
<!-- Generator: Adobe Illustrator 16.0.0, SVG Export Plug-In . SVG Version: 6.00 Build 0)  -->
<!DOCTYPE svg PUBLIC "-//W3C//DTD SVG 1.1//EN" "http://www.w3.org/Graphics/SVG/1.1/DTD/svg11.dtd" [
	<!ENTITY ns_extend "http://ns.adobe.com/Extensibility/1.0/">
	<!ENTITY ns_ai "http://ns.adobe.com/AdobeIllustrator/10.0/">
	<!ENTITY ns_graphs "http://ns.adobe.com/Graphs/1.0/">
	<!ENTITY ns_vars "http://ns.adobe.com/Variables/1.0/">
	<!ENTITY ns_imrep "http://ns.adobe.com/ImageReplacement/1.0/">
	<!ENTITY ns_sfw "http://ns.adobe.com/SaveForWeb/1.0/">
	<!ENTITY ns_custom "http://ns.adobe.com/GenericCustomNamespace/1.0/">
	<!ENTITY ns_adobe_xpath "http://ns.adobe.com/XPath/1.0/">
]>
<svg version="1.1" id="Layer_1" xmlns:x="&ns_extend;" xmlns:i="&ns_ai;" xmlns:graph="&ns_graphs;"
	 xmlns="http://www.w3.org/2000/svg" xmlns:xlink="http://www.w3.org/1999/xlink" x="0px" y="0px" width="78px" height="78px"
	 viewBox="9 9 78 78" enable-background="new 9 9 78 78" xml:space="preserve">
<metadata>
	<sfw  xmlns="&ns_sfw;">
		<slices></slices>
		<sliceSourceBounds  height="78" width="78" x="8.5" y="9.5" bottomLeftOrigin="true"></sliceSourceBounds>
	</sfw>
</metadata>
<title></title>
<g id="Layer_2_1_">
	<path fill="#008D8A" d="M48,87C26.4,87,9,69.6,9,48C9,26.4,26.4,9,48,9c21.6,0,39,17.4,39,39C87,69.6,69.6,87,48,87z M48,15
		c-18.3,0-33,14.7-33,33s14.7,33,33,33s33-14.7,33-33S66.3,15,48,15z"/>
	<path fill="#008D8A" d="M64.5,67.5c-0.9,0-1.5-0.3-2.1-0.9L45.9,50.1C45.3,49.5,45,48.9,45,48V24c0-1.8,1.2-3,3-3s3,1.2,3,3v22.8
		L66.6,62.4c1.2,1.199,1.2,3,0,4.199l0,0C66,67.2,65.4,67.5,64.5,67.5z"/>
</g>
</svg>
