<?xml version="1.0" encoding="utf-8"?>
<!-- Generator: Adobe Illustrator 16.0.0, SVG Export Plug-In . SVG Version: 6.00 Build 0)  -->
<!DOCTYPE svg PUBLIC "-//W3C//DTD SVG 1.1//EN" "http://www.w3.org/Graphics/SVG/1.1/DTD/svg11.dtd" [
	<!ENTITY ns_extend "http://ns.adobe.com/Extensibility/1.0/">
	<!ENTITY ns_ai "http://ns.adobe.com/AdobeIllustrator/10.0/">
	<!ENTITY ns_graphs "http://ns.adobe.com/Graphs/1.0/">
	<!ENTITY ns_vars "http://ns.adobe.com/Variables/1.0/">
	<!ENTITY ns_imrep "http://ns.adobe.com/ImageReplacement/1.0/">
	<!ENTITY ns_sfw "http://ns.adobe.com/SaveForWeb/1.0/">
	<!ENTITY ns_custom "http://ns.adobe.com/GenericCustomNamespace/1.0/">
	<!ENTITY ns_adobe_xpath "http://ns.adobe.com/XPath/1.0/">
]>
<svg version="1.1" id="Layer_1" xmlns:x="&ns_extend;" xmlns:i="&ns_ai;" xmlns:graph="&ns_graphs;"
	 xmlns="http://www.w3.org/2000/svg" xmlns:xlink="http://www.w3.org/1999/xlink" x="0px" y="0px" width="66.188px"
	 height="77.85px" viewBox="0 0 66.188 77.85" enable-background="new 0 0 66.188 77.85" xml:space="preserve">
<metadata>
	<sfw  xmlns="&ns_sfw;">
		<slices></slices>
		<sliceSourceBounds  height="77.85" width="66.188" x="-0.5" y="18.65" bottomLeftOrigin="true"></sliceSourceBounds>
	</sfw>
</metadata>
<title></title>
<g id="Layer_2_1_">
	<path fill="#008D8A" d="M33.075,77.85c-0.9,0-1.5-0.299-2.1-0.9l-21.3-21c-12.9-12.6-12.9-33.3,0-46.2c0,0,0,0,0.3-0.3
		c12.6-12.6,33.6-12.6,46.5,0c12.9,12.6,12.9,33.601,0.301,46.201c0,0,0,0-0.301,0.299l-21.3,21
		C34.575,77.551,33.975,77.85,33.075,77.85z M33.075,5.85c-7.2,0-14.1,2.7-19.2,7.8l0,0c-10.5,10.5-10.5,27.299,0,37.8l0,0
		l19.2,18.9l19.201-18.9c10.5-10.5,10.5-27.3,0-37.8l0,0C47.174,8.55,40.275,5.85,33.075,5.85z M11.775,11.55L11.775,11.55z"/>
	<path fill="#008D8A" d="M33.075,47.849c-8.4,0-15-6.6-15-15s6.6-15,15-15c8.4,0,15,6.6,15,15S41.475,47.849,33.075,47.849z
		 M33.075,23.85c-5.1,0-9,3.9-9,9s3.9,9,9,9c5.1,0,9-3.899,9-9S38.174,23.85,33.075,23.85z"/>
</g>
</svg>
