<?xml version="1.0" encoding="utf-8"?>
<!-- Generator: Adobe Illustrator 16.0.0, SVG Export Plug-In . SVG Version: 6.00 Build 0)  -->
<!DOCTYPE svg PUBLIC "-//W3C//DTD SVG 1.1//EN" "http://www.w3.org/Graphics/SVG/1.1/DTD/svg11.dtd" [
	<!ENTITY ns_extend "http://ns.adobe.com/Extensibility/1.0/">
	<!ENTITY ns_ai "http://ns.adobe.com/AdobeIllustrator/10.0/">
	<!ENTITY ns_graphs "http://ns.adobe.com/Graphs/1.0/">
	<!ENTITY ns_vars "http://ns.adobe.com/Variables/1.0/">
	<!ENTITY ns_imrep "http://ns.adobe.com/ImageReplacement/1.0/">
	<!ENTITY ns_sfw "http://ns.adobe.com/SaveForWeb/1.0/">
	<!ENTITY ns_custom "http://ns.adobe.com/GenericCustomNamespace/1.0/">
	<!ENTITY ns_adobe_xpath "http://ns.adobe.com/XPath/1.0/">
]>
<svg version="1.1" id="Layer_1" xmlns:x="&ns_extend;" xmlns:i="&ns_ai;" xmlns:graph="&ns_graphs;"
	 xmlns="http://www.w3.org/2000/svg" xmlns:xlink="http://www.w3.org/1999/xlink" x="0px" y="0px" width="33.806px"
	 height="66.206px" viewBox="31.556 15.094 33.806 66.206" enable-background="new 31.556 15.094 33.806 66.206"
	 xml:space="preserve">
<metadata>
	<sfw  xmlns="&ns_sfw;">
		<slices></slices>
		<sliceSourceBounds  height="66.206" width="33.806" x="31.056" y="15.2" bottomLeftOrigin="true"></sliceSourceBounds>
	</sfw>
</metadata>
<path fill="#008D8A" d="M38.775,81.263c0-11.044,0-21.994,0-33.057c-2.438,0-4.8,0-7.219,0c0-3.75,0-7.387,0-11.137
	c0.319-0.019,0.638-0.056,0.975-0.056c1.744,0,3.506-0.038,5.25,0.019c0.769,0.019,1.031-0.188,1.013-0.975
	c-0.038-2.85-0.038-5.681-0.019-8.531c0.019-3.206,0.919-6.112,3.207-8.438c2.212-2.25,5.043-3.469,8.118-3.656
	c4.95-0.281,9.919-0.244,14.888-0.337c0.057,0,0.112,0.056,0.226,0.112c0,3.769,0,7.557,0,11.438
	c-0.356,0.019-0.694,0.038-1.013,0.038c-2.25,0-4.5,0-6.75,0c-2.269,0.019-3.601,1.369-3.601,3.6c0,2.119,0,4.256,0.02,6.375
	c0,0.056,0.037,0.112,0.094,0.319c3.712,0,7.462,0,11.399,0c-0.487,3.806-0.938,7.444-1.425,11.212c-3.394,0-6.713,0-10.125,0
	c0,11.1,0,22.088,0,33.112C48.769,81.263,43.856,81.263,38.775,81.263z"/>
</svg>
