<?xml version="1.0" encoding="utf-8"?>
<!-- Generator: Adobe Illustrator 16.0.0, SVG Export Plug-In . SVG Version: 6.00 Build 0)  -->
<!DOCTYPE svg PUBLIC "-//W3C//DTD SVG 1.1//EN" "http://www.w3.org/Graphics/SVG/1.1/DTD/svg11.dtd" [
	<!ENTITY ns_extend "http://ns.adobe.com/Extensibility/1.0/">
	<!ENTITY ns_ai "http://ns.adobe.com/AdobeIllustrator/10.0/">
	<!ENTITY ns_graphs "http://ns.adobe.com/Graphs/1.0/">
	<!ENTITY ns_vars "http://ns.adobe.com/Variables/1.0/">
	<!ENTITY ns_imrep "http://ns.adobe.com/ImageReplacement/1.0/">
	<!ENTITY ns_sfw "http://ns.adobe.com/SaveForWeb/1.0/">
	<!ENTITY ns_custom "http://ns.adobe.com/GenericCustomNamespace/1.0/">
	<!ENTITY ns_adobe_xpath "http://ns.adobe.com/XPath/1.0/">
]>
<svg version="1.1" id="Layer_1" xmlns:x="&ns_extend;" xmlns:i="&ns_ai;" xmlns:graph="&ns_graphs;"
	 xmlns="http://www.w3.org/2000/svg" xmlns:xlink="http://www.w3.org/1999/xlink" x="0px" y="0px" width="59.556px"
	 height="63.228px" viewBox="19.738 18.985 59.556 63.228" enable-background="new 19.738 18.985 59.556 63.228"
	 xml:space="preserve">
<metadata>
	<sfw  xmlns="&ns_sfw;">
		<slices></slices>
		<sliceSourceBounds  height="63.228" width="59.556" x="19.238" y="14.287" bottomLeftOrigin="true"></sliceSourceBounds>
	</sfw>
</metadata>
<g>
	<path fill="#008D8A" d="M36.356,54.825c-0.207-1.95-0.394-3.75-0.582-5.644c-1.894-0.132-3.881-0.619-5.663-1.726
		c-4.95-3.112-6.938-7.8-6.881-13.425c0.075-8.156,7.106-15.019,15.262-15.038c4.931-0.019,9.863,0,14.813,0
		c0.75,0,1.5,0.038,1.781,0.863c0.281,0.806,0.056,1.5-0.676,2.062c-0.769,0.6-1.5,1.219-2.212,1.894
		c-0.788,0.75-1.594,1.425-2.869,1.106c0.525,1.2,1.106,2.269,1.463,3.412c2.044,6.506,0.956,12.263-4.144,17.044
		c-0.581,0.544-1.163,1.144-1.668,1.763c-0.938,1.144-1.031,2.381-0.094,3.506c1.219,1.444,2.475,2.906,3.919,4.106
		c6.618,5.531,7.256,18.057-0.413,23.869c-2.475,1.875-5.231,3.037-8.287,3.394c-5.082,0.581-9.975-0.038-14.475-2.682
		c-3.038-1.781-5.212-4.312-5.756-7.894c-0.525-3.544,0.487-6.769,2.587-9.6c3.207-4.332,7.613-6.507,12.938-6.919
		C35.794,54.862,36.169,54.844,36.356,54.825z M37.725,59.568c-1.5-0.019-3.207,0.338-4.763,1.182
		c-3.019,1.612-5.175,3.881-4.969,7.575c0.188,3.243,1.931,5.568,4.8,6.956c3.225,1.557,6.543,1.162,9.844,0.15
		c5.137-1.594,6.487-9.263,2.325-12.45c-0.694-0.525-1.369-1.088-1.987-1.706C41.606,59.85,39.862,59.568,37.725,59.568z
		 M31.031,31.913c0.319,1.8,0.469,3.319,0.881,4.781c0.769,2.719,2.043,5.175,4.462,6.806c2.288,1.538,4.688,0.938,6.019-1.462
		c1.369-2.457,1.538-5.1,1.106-7.819c-0.487-3.15-1.631-6.019-4.069-8.194c-2.663-2.381-5.7-1.856-7.181,1.369
		C31.594,28.856,31.388,30.544,31.031,31.913z"/>
	<path fill="#008D8A" d="M64.088,44.663c0-3.525,0-6.863,0-10.2c0-0.431,0.019-0.9,0.206-1.256c0.506-0.938,3.975-0.938,4.5,0
		c0.206,0.375,0.281,0.9,0.281,1.35c0.019,3,0.019,6,0.019,9c0,0.337,0,0.675,0,1.125c0.638,0,1.162,0,1.688,0
		c2.213,0,4.443,0,6.656,0c1.481,0,1.856,0.394,1.856,1.913c0,0.788,0,1.556,0,2.344c-0.019,1.275-0.432,1.688-1.688,1.706
		c-2.476,0-4.932,0-7.406,0c-0.338,0-0.675,0-1.125,0c0,0.694,0,1.275,0,1.875c0,2.719,0,5.438,0,8.156
		c0,1.688-0.356,2.044-2.007,2.062c-0.412,0-0.806,0-1.219,0c-1.443,0-1.781-0.337-1.8-1.763c0-3.056,0-6.131,0-9.188
		c0-0.337,0-0.675,0-1.087c-0.431-0.019-0.769-0.038-1.087-0.038c-2.494,0-5.007,0-7.5,0c-1.163,0-1.65-0.469-1.669-1.631
		c-0.019-0.9-0.019-1.819,0-2.719c0.037-1.106,0.506-1.575,1.631-1.594c2.494-0.019,5.007,0,7.5,0
		C63.3,44.663,63.638,44.663,64.088,44.663z"/>
</g>
</svg>
